<svg width="207" height="207" viewBox="0 0 207 207" fill="none" xmlns="http://www.w3.org/2000/svg">
<path d="M109.964 29.8714C108.248 29.6669 106.993 29.0231 106.198 27.9401C105.403 26.8571 105.112 25.4259 105.324 23.6465L106.717 11.9533C106.929 10.1739 107.549 8.85121 108.576 7.98533C109.603 7.11945 110.974 6.78876 112.69 6.99325C114.406 7.19774 115.661 7.84149 116.456 8.92448C117.251 10.0075 117.542 11.4387 117.33 13.2181L115.937 24.9113C115.725 26.6907 115.105 28.0134 114.078 28.8793C113.051 29.7452 111.68 30.0758 109.964 29.8714ZM110.342 26.6938C111.55 26.8377 112.241 26.1789 112.415 24.7172L113.861 12.5791C114.036 11.1174 113.519 10.3147 112.312 10.1708C111.104 10.0269 110.413 10.6857 110.239 12.1474L108.793 24.2855C108.618 25.7472 109.135 26.5499 110.342 26.6938Z" fill="black"/>
<path d="M130.491 10.4955L135.339 12.3305C136.976 12.9497 138.036 13.853 138.522 15.0405C139.008 16.228 138.93 17.6697 138.288 19.3657L137.507 21.4307C136.865 23.1267 135.969 24.2588 134.818 24.8271C133.668 25.3954 132.275 25.3699 130.639 24.7507L129.083 24.1617L125.854 32.6913L122.562 31.4453L130.491 10.4955ZM131.772 21.7579C132.31 21.9618 132.766 21.9631 133.139 21.762C133.531 21.5685 133.863 21.1125 134.135 20.3943L135.075 17.9102C135.347 17.1919 135.4 16.6303 135.234 16.2253C135.088 15.8278 134.745 15.5272 134.207 15.3233L132.651 14.7343L130.215 21.1689L131.772 21.7579Z" fill="black"/>
<path d="M151.792 19.7171L159.74 25.1009L157.945 27.7503L152.911 24.3406L149.591 29.242L153.592 31.9519L151.797 34.6013L147.797 31.8914L143.938 37.5876L148.972 40.9974L147.178 43.6468L139.229 38.263L151.792 19.7171Z" fill="black"/>
<path d="M169.223 32.624L172.218 35.8691L164.688 47.4789L164.731 47.5259L174.584 38.4322L176.711 40.7367L160.25 55.929L157.798 53.2718L166.949 39.0774L166.906 39.0304L154.89 50.1208L152.763 47.8163L169.223 32.624Z" fill="black"/>
<path d="M190.493 62.1055L191.89 65.3362L171.331 74.2284L169.934 70.9976L190.493 62.1055Z" fill="black"/>
<path d="M195.735 75.0304L196.696 79.3405L184.355 85.6009L184.369 85.6634L197.456 82.7449L198.138 85.8057L176.275 90.6815L175.488 87.1522L190.529 79.4701L190.515 79.4077L174.555 82.967L173.872 79.9062L195.735 75.0304Z" fill="black"/>
<path d="M176.305 113.212C176.586 111.529 177.273 110.335 178.364 109.631C179.476 108.93 180.926 108.729 182.715 109.028L183.977 109.24L183.428 112.522L181.913 112.269C180.483 112.029 179.667 112.509 179.466 113.709C179.368 114.298 179.462 114.768 179.75 115.119C180.055 115.494 180.596 115.747 181.375 115.877C182.301 116.032 183.146 115.957 183.911 115.652C184.696 115.351 185.679 114.715 186.858 113.744C188.359 112.525 189.663 111.715 190.768 111.316C191.894 110.92 193.098 110.83 194.382 111.044C196.128 111.336 197.401 112.003 198.2 113.045C199.02 114.091 199.29 115.456 199.008 117.139C198.73 118.801 198.037 119.972 196.928 120.652C195.837 121.356 194.397 121.559 192.609 121.26L191.694 121.107L192.242 117.824L193.379 118.014C194.136 118.141 194.708 118.085 195.094 117.847C195.501 117.612 195.752 117.211 195.847 116.643C196.04 115.485 195.432 114.789 194.022 114.553C193.223 114.419 192.441 114.505 191.676 114.81C190.908 115.135 189.934 115.784 188.755 116.754C187.25 117.995 185.936 118.803 184.814 119.178C183.691 119.552 182.435 119.623 181.047 119.391C179.237 119.089 177.924 118.404 177.107 117.337C176.287 116.292 176.02 114.917 176.305 113.212Z" fill="black"/>
<path d="M190.872 135.299L192.267 131.894L195.229 133.107L191.103 143.175L188.142 141.962L189.538 138.556L171.771 131.276L173.106 128.019L190.872 135.299Z" fill="black"/>
<path d="M164.659 144.042C165.648 142.624 166.807 141.82 168.136 141.629C169.466 141.438 170.866 141.855 172.336 142.88L181.995 149.615C183.465 150.64 184.34 151.809 184.621 153.123C184.901 154.437 184.547 155.803 183.559 157.22C182.57 158.637 181.411 159.442 180.082 159.633C178.752 159.824 177.352 159.407 175.882 158.382L166.223 151.647C164.753 150.622 163.878 149.452 163.597 148.139C163.317 146.825 163.671 145.459 164.659 144.042ZM167.284 145.872C166.589 146.87 166.845 147.789 168.052 148.631L178.079 155.623C179.287 156.465 180.238 156.387 180.934 155.39C181.629 154.392 181.373 153.472 180.166 152.631L170.139 145.639C168.931 144.797 167.98 144.875 167.284 145.872Z" fill="black"/>
<path d="M173.178 169.984L169.321 173.496C167.98 174.717 166.715 175.292 165.525 175.221C164.35 175.166 163.173 174.492 161.996 173.198L161.069 172.181C159.504 170.461 159.081 168.856 159.8 167.364L159.757 167.317C158.954 167.702 158.16 167.718 157.376 167.364C156.577 167.024 155.732 166.365 154.841 165.387L152.191 162.477C151.761 162.004 151.393 161.632 151.089 161.361C150.798 161.105 150.461 160.893 150.076 160.724L152.726 158.311C153.065 158.493 153.358 158.688 153.605 158.896C153.852 159.104 154.256 159.516 154.816 160.131L157.573 163.16C158.263 163.917 158.87 164.33 159.395 164.4C159.905 164.485 160.459 164.254 161.059 163.708L161.958 162.889L155.495 155.791L158.098 153.421L173.178 169.984ZM163.166 166.117C162.645 166.591 162.381 167.077 162.373 167.575C162.349 168.088 162.624 168.659 163.198 169.29L164.362 170.568C164.907 171.167 165.413 171.501 165.878 171.568C166.327 171.649 166.78 171.482 167.238 171.065L168.421 169.988L164.112 165.256L163.166 166.117Z" fill="black"/>
<path d="M156.038 184.392L147.569 188.913L146.062 186.09L151.426 183.227L148.638 178.005L144.375 180.28L142.868 177.457L147.131 175.182L143.891 169.112L138.527 171.976L137.02 169.153L145.489 164.632L156.038 184.392Z" fill="black"/>
<path d="M100.182 176.925C101.906 177.043 103.192 177.623 104.041 178.664C104.889 179.706 105.252 181.121 105.129 182.909L104.325 194.657C104.203 196.445 103.65 197.797 102.668 198.713C101.686 199.63 100.333 200.029 98.609 199.911C96.885 199.793 95.599 199.213 94.7508 198.171C93.9026 197.13 93.5397 195.715 93.6621 193.927L94.4663 182.179C94.5887 180.391 95.141 179.039 96.1232 178.122C97.1054 177.206 98.4585 176.807 100.182 176.925ZM99.9639 180.117C98.7507 180.034 98.0939 180.727 97.9934 182.196L97.1586 194.391C97.058 195.86 97.6144 196.635 98.8275 196.718C100.041 196.802 100.698 196.109 100.798 194.64L101.633 182.445C101.733 180.976 101.177 180.2 99.9639 180.117Z" fill="black"/>
<path d="M80.6698 197.299L75.7345 195.712C74.0691 195.177 72.9637 194.329 72.4183 193.167C71.8728 192.006 71.8776 190.562 72.4325 188.836L73.1083 186.734C73.6632 185.008 74.5007 183.831 75.6206 183.205C76.7406 182.58 78.1333 182.534 79.7987 183.07L81.3828 183.579L84.1739 174.896L87.525 175.974L80.6698 197.299ZM78.8194 186.116C78.271 185.94 77.8158 185.962 77.4539 186.181C77.0716 186.395 76.763 186.867 76.5279 187.598L75.7151 190.126C75.4801 190.858 75.4558 191.421 75.6422 191.817C75.8083 192.207 76.1655 192.49 76.7139 192.666L78.298 193.175L80.4035 186.625L78.8194 186.116Z" fill="black"/>
<path d="M58.9351 189.154L50.724 184.18L52.382 181.443L57.5823 184.593L60.6495 179.53L56.5166 177.026L58.1745 174.289L62.3074 176.793L65.8719 170.908L60.6716 167.758L62.3295 165.021L70.5406 169.995L58.9351 189.154Z" fill="black"/>
<path d="M40.8091 177.087L37.6635 173.988L44.6352 162.034L44.5896 161.989L35.179 171.539L32.9452 169.338L48.667 153.383L51.2427 155.921L42.7746 170.533L42.8202 170.578L54.2971 158.93L56.5309 161.131L40.8091 177.087Z" fill="black"/>
<path d="M18.1346 148.686L16.5839 145.526L36.6931 135.658L38.2438 138.818L18.1346 148.686Z" fill="black"/>
<path d="M12.3047 136.117L11.1226 131.862L23.1248 124.974L23.1077 124.912L10.189 128.501L9.34955 125.48L30.9321 119.484L31.9001 122.968L17.2754 131.415L17.2926 131.476L33.0479 127.099L33.8873 130.121L12.3047 136.117Z" fill="black"/>
<path d="M29.8026 96.9767C29.6063 98.6721 28.9811 99.899 27.9269 100.657C26.8515 101.413 25.4131 101.687 23.6118 101.479L22.3403 101.331L22.723 98.0256L24.2488 98.2022C25.6899 98.369 26.4803 97.8485 26.6201 96.6405C26.6888 96.0472 26.5708 95.5825 26.2661 95.2466C25.9426 94.887 25.3888 94.6618 24.6047 94.571C23.6723 94.4631 22.8319 94.5806 22.0835 94.9235C21.3139 95.2639 20.3649 95.9486 19.2364 96.9777C17.798 98.2715 16.5372 99.1457 15.4537 99.6001C14.3491 100.052 13.1504 100.203 11.8577 100.054C10.0988 99.85 8.79404 99.2479 7.94344 98.2475C7.07165 97.2446 6.73389 95.8955 6.93014 94.2001C7.12395 92.526 7.75732 91.3215 8.83027 90.5866C9.88449 89.8282 11.3122 89.5532 13.1136 89.7617L14.0354 89.8684L13.6527 93.1744L12.5083 93.0419C11.7454 92.9536 11.1773 93.0381 10.8039 93.2956C10.4093 93.5505 10.1788 93.9641 10.1126 94.5363C9.97767 95.7019 10.6201 96.3668 12.04 96.5312C12.8453 96.6244 13.6221 96.4996 14.3705 96.1567C15.1214 95.7926 16.061 95.0961 17.1895 94.067C18.6303 92.752 19.9018 91.879 21.004 91.4483C22.1061 91.0175 23.3566 90.883 24.7552 91.045C26.5777 91.2559 27.9236 91.8735 28.793 92.8976C29.6648 93.9005 30.0013 95.2602 29.8026 96.9767Z" fill="black"/>
<path d="M14.1485 75.6622L12.9278 79.1339L9.90899 78.0724L13.518 67.8084L16.5368 68.8699L15.3161 72.3415L33.429 78.7103L32.2614 82.031L14.1485 75.6622Z" fill="black"/>
<path d="M39.8993 65.6079C38.9841 67.0737 37.8674 67.9357 36.5492 68.1941C35.2309 68.4525 33.8118 68.1072 32.2918 67.1581L22.3029 60.9213C20.7829 59.9722 19.8496 58.8488 19.503 57.5509C19.1565 56.2531 19.4408 54.8713 20.3559 53.4055C21.2711 51.9398 22.3878 51.0777 23.7061 50.8193C25.0243 50.5609 26.4434 50.9063 27.9635 51.8554L37.9523 58.0921C39.4724 59.0412 40.4057 60.1647 40.7522 61.4625C41.0988 62.7604 40.8145 64.1422 39.8993 65.6079ZM37.185 63.9131C37.829 62.8817 37.5267 61.9762 36.2781 61.1966L25.9092 54.7225C24.6606 53.9429 23.7143 54.0688 23.0703 55.1003C22.4263 56.1318 22.7286 57.0373 23.9772 57.8169L34.346 64.2909C35.5946 65.0705 36.5409 64.9446 37.185 63.9131Z" fill="black"/>
<path d="M30.0936 40.1465L33.7672 36.4436C35.0443 35.1563 36.2787 34.5178 37.4705 34.5282C38.6471 34.5235 39.8563 35.1372 41.0982 36.3693L42.075 37.3384C43.7258 38.9761 44.2299 40.558 43.5873 42.0842L43.6327 42.1292C44.4155 41.7037 45.2072 41.6478 46.008 41.9614C46.8237 42.2599 47.7011 42.8749 48.6401 43.8064L51.4343 46.5785C51.8886 47.0293 52.2747 47.3822 52.5925 47.6374C52.8952 47.8776 53.2429 48.0723 53.6357 48.2216L51.1115 50.7659C50.7639 50.6013 50.4615 50.4215 50.2043 50.2264C49.947 50.0314 49.5231 49.6408 48.9325 49.0549L46.0247 46.1701C45.2977 45.4489 44.6702 45.0667 44.142 45.0235C43.6289 44.9652 43.0869 45.2238 42.5159 45.7993L41.6595 46.6626L48.4746 53.4238L45.9955 55.9227L30.0936 40.1465ZM40.2893 43.5002C40.7851 43.0004 41.0245 42.5016 41.0074 42.0039C41.0054 41.491 40.7015 40.9341 40.0957 40.3331L38.869 39.116C38.2935 38.5451 37.7718 38.2379 37.304 38.1945C36.8512 38.136 36.407 38.3263 35.9713 38.7655L34.8444 39.9014L39.3878 44.4088L40.2893 43.5002Z" fill="black"/>
<path d="M46.5492 24.8452L54.7925 19.9252L56.4326 22.673L51.2118 25.789L54.2458 30.8724L58.3949 28.396L60.035 31.1438L55.8858 33.6202L59.4118 39.528L64.6326 36.4119L66.2727 39.1597L58.0293 44.0798L46.5492 24.8452Z" fill="black"/>
<circle cx="85" cy="20" r="3" fill="black"/>
<circle cx="121" cy="188" r="3" fill="black"/>
</svg>
