<?xml version="1.0" encoding="UTF-8"?>
<svg version="1.1" viewBox="0 0 1600 848" width="1280" height="1280" xmlns="http://www.w3.org/2000/svg">
<path transform="translate(1235 18.2)" d="m0 0c3.25 1 6.51 1.6 9.86 2.16 2.34 0.54 4.5 1.2 6.76 1.98 5.65 1.92 11.4 3.5 17.1 5.09 2.22 0.61 4.44 1.23 6.66 1.85 1.06 0.29 2.12 0.59 3.21 0.89 6.84 1.9 13.6 3.87 20.5 5.84 3.01 0.84 6.01 1.62 9.05 2.35 6.17 1.54 12.3 3.27 18.4 5.04 2.18 0.63 4.36 1.25 6.55 1.86 8 2.27 16 4.56 24 6.98 0.97 0.29 0.97 0.29 1.95 0.59 1.31 0.39 2.62 0.79 3.94 1.19 9.79 2.96 19.6 5.87 29.5 8.22 6.9 1.66 13.7 3.84 20.4 5.98 3.21 1.01 6.42 1.95 9.69 2.77 1.98 0.55 3.95 1.11 5.92 1.67 1.17 0.33 2.33 0.67 3.53 1.01 1.23 0.35 2.47 0.7 3.74 1.07 1.27 0.36 2.53 0.72 3.84 1.1 6.71 1.92 13.4 3.85 20.1 5.84 5.38 1.59 10.8 3.13 16.2 4.62 2.31 0.64 4.62 1.28 6.94 1.93 2 0.55 4.01 1.11 6.01 1.66 39.7 11 39.7 11 44.2 16.4 4 8.21 2.71 19 2.69 27.8 0 1.41 0 2.82 0.01 4.23 0 3.87 0 7.74-0.01 11.6 0 4.2 0.01 8.39 0.01 12.6v24.8 20.4 2.96 5.96c0.01 24.2 0 48.5-0.01 72.8v19.5c-0.02 51.2-0.05 102-0.1 154v3.01 3 2.98c-0.01 1.96-0.01 3.92-0.01 5.89l-0.03 39.8c-0.01 29.7-0.04 59.3-0.12 89-0.01 2.28-0.01 4.56-0.02 6.84 0 1.11-0.01 2.22-0.01 3.37-0.02 7.76-0.03 15.5-0.03 23.3 0 9.2-0.02 18.4-0.07 27.6-0.02 4.53-0.03 9.06-0.02 13.6 0.01 4.03-0.01 8.06-0.04 12.1-0.01 1.44-0.01 2.88 0 4.32 0.01 1.93-0.01 3.87-0.04 5.81v3.24c-0.86 3.72-2.49 4.72-5.64 6.75-10.8 4.84-22.6 7.57-33.9 10.8-2.8 0.79-5.6 1.58-8.4 2.38-1.88 0.53-3.75 1.06-5.62 1.59-8.36 2.36-16.7 4.78-25 7.22-8.75 2.55-17.5 5.08-26.3 7.48-3.34 0.91-6.67 1.87-9.99 2.87-8.21 2.48-16.5 4.8-24.7 7.15-1.85 0.53-3.71 1.06-5.57 1.59-3.87 1.1-7.73 2.2-11.6 3.31-9.23 2.63-18.5 5.27-27.7 7.91-3.5 1-6.99 2-10.5 3-0.83 0.23-1.66 0.47-2.51 0.71-5.05 1.45-10.1 2.89-15.1 4.32-10.7 3.05-21.3 6.1-32 9.22-12.2 3.57-24.5 7.15-36.8 10.6-2.07 0.58-4.13 1.16-6.19 1.75-22.4 6.34-41.3 2.92-63.5-2.46-4.16-1-8.32-1.99-12.5-2.99-1.27-0.3-1.27-0.3-2.56-0.61-8.3-1.98-16.6-3.89-24.9-5.78-2.88-0.65-5.75-1.31-8.62-1.96-0.72-0.17-1.44-0.33-2.18-0.5-8.95-2.03-17.9-4.1-26.8-6.17-0.83-0.19-1.65-0.38-2.51-0.58-4.01-0.92-8.03-1.85-12-2.78-5.01-1.16-10-2.31-15-3.47-2.08-0.48-4.16-0.96-6.24-1.44-5.33-1.23-10.7-2.45-16-3.66-35.4-8.05-35.4-8.05-39.4-13.1-4.15-7.89-4.15-7.89-2.68-13.3-2.54 0.43-5.08 0.87-7.62 1.31-0.77 0.13-1.55 0.27-2.34 0.41-4.79 0.84-9.5 1.84-14.2 2.97-13.6 2.89-25.6 0.64-38.8-2.63-1.71-0.41-3.41-0.82-5.12-1.22-3.54-0.85-7.07-1.7-10.6-2.56-7.71-1.86-15.4-3.63-23.2-5.4-4.09-0.94-8.18-1.88-12.3-2.83-5.27-1.22-10.6-2.43-15.8-3.63-5.15-1.18-10.3-2.37-15.4-3.57-2.74-0.64-5.49-1.28-8.24-1.91-4.21-0.98-8.43-1.97-12.6-2.97-1.67-0.39-3.33-0.78-5-1.17-2.34-0.54-4.68-1.09-7.01-1.65-0.7-0.16-1.39-0.32-2.11-0.48-6.82-1.67-11.8-4.81-15.7-10.7v-3c-4.38 0.38-8.49 0.86-12.8 2.06-10.4 2.72-21 0.5-31.2-2-1.33-0.31-2.66-0.62-3.99-0.94-2.85-0.67-5.69-1.34-8.54-2.03-4.75-1.14-9.51-2.27-14.3-3.38-11.7-2.77-23.5-5.53-35.2-8.39-0.98-0.24-1.96-0.48-2.97-0.73-1.72-0.42-3.44-0.84-5.15-1.27-5.44-1.43-5.44-1.43-11-1.32-0.42 0.63-0.85 1.27-1.3 1.92-2.18 2.68-3.72 2.97-7.06 3.75-1.65 0.41-1.65 0.41-3.33 0.81-1.19 0.28-2.39 0.55-3.62 0.83-1.25 0.3-2.49 0.6-3.78 0.9-3.3 0.79-6.62 1.56-9.93 2.33-3.14 0.73-6.28 1.48-9.41 2.22-13.4 3.18-26.9 6.22-40.4 9.25-8.34 1.87-16.6 3.79-25 5.8-10.9 2.65-21.9 5.21-32.8 7.75-0.89 0.21-1.78 0.42-2.7 0.63-10.4 2.42-20.9 4.84-31.3 7.25-6.11 1.42-12.2 2.83-18.3 4.25-1.21 0.28-2.42 0.56-3.67 0.85-14.2 3.29-28.4 6.62-42.6 10.1-9.45 2.29-18.9 4.46-28.4 6.61-9.66 2.2-19.3 4.42-29 6.69-1.6 0.37-1.6 0.37-3.23 0.75-5.28 1.25-10.6 2.49-15.8 3.74-1.95 0.45-3.89 0.91-5.83 1.37-0.89 0.21-1.77 0.42-2.68 0.63-10.5 2.47-19.6 3.41-30.2 1.15-1.23-0.25-1.23-0.25-2.5-0.51-10.7-2.27-21.3-4.95-31.9-7.56-9.94-2.45-19.9-4.78-29.9-6.99-11.9-2.64-23.7-5.53-35.5-8.52-11.1-2.81-22.3-5.46-33.5-7.98-11.8-2.65-23.5-5.47-35.2-8.44-15.2-3.86-30.5-7.44-45.9-11-1.19-0.27-1.19-0.27-2.41-0.55-0.77-0.18-1.55-0.35-2.36-0.54-9.57-2.19-19.1-4.5-28.7-6.81-3.16-0.76-6.33-1.52-9.49-2.27-5.25-1.25-10.5-2.51-15.7-3.78-2.47-0.6-4.95-1.18-7.43-1.75-8.22-1.97-13.5-3.66-18.3-10.9-1.72-11.2-1.14-22.9-1.12-34.1 0-2.01-0.01-4.03-0.01-6.05v-16.5c0.01-5.95 0-11.9 0-17.9v-33-30.5-2.05-8.23-77.2c0.01-22.8 0.01-45.6 0-68.4v-77-8.24-2.05-30.4-34.7-17.6c-0.02-40.6-0.02-40.6 0.41-59.9 0.03-1.5 0.06-3.01 0.08-4.51 0.03-2.02 0.08-4.05 0.14-6.08 0.02-1.12 0.05-2.25 0.07-3.4 0.5-3.57 1.6-6.03 3.43-9.12 1.89-1.36 1.89-1.36 4.03-2.19 0.8-0.31 1.6-0.62 2.42-0.94 4.33-1.47 8.69-2.72 13.1-3.87 1.43-0.38 1.43-0.38 2.9-0.77 2.84-0.76 5.69-1.5 8.53-2.23 0.8-0.21 1.6-0.41 2.42-0.63 7.02-1.82 14-3.52 21.2-4.88 3.81-0.78 7.56-1.76 11.3-2.72 2.92-0.73 5.84-1.42 8.77-2.08 9.67-2.22 19.3-4.56 29-6.88 3.32-0.8 6.64-1.6 9.97-2.39 10.1-2.43 20.2-4.88 30.4-7.42 10.7-2.67 21.4-5.19 32.2-7.63 3.63-0.83 7.23-1.73 10.8-2.75 11-3.05 22.1-5.32 33.2-7.76 0.81-0.18 1.61-0.36 2.44-0.54 1.5-0.33 2.99-0.65 4.49-0.98 3.09-0.68 6.14-1.41 9.19-2.29 3.59-1.02 7.18-1.9 10.8-2.74 0.97-0.23 0.97-0.23 1.96-0.46 2.04-0.47 4.08-0.94 6.12-1.41 2.05-0.48 4.11-0.95 6.16-1.43 1.85-0.43 3.7-0.86 5.56-1.29 2.37-0.55 4.73-1.13 7.09-1.72 1.69-0.39 3.38-0.78 5.07-1.16 0.96-0.22 1.92-0.43 2.91-0.66 2.02-0.45 4.03-0.91 6.05-1.36 0.96-0.22 1.92-0.44 2.91-0.66 0.88-0.2 1.75-0.4 2.65-0.6 1.52-0.35 3.04-0.72 4.54-1.12 2.8-0.66 5.51-0.61 8.37-0.63 1.13-0.01 2.25-0.03 3.41-0.04 10.5 0.34 20.8 3.2 31 5.54 1.37 0.31 2.74 0.63 4.11 0.94 2.73 0.62 5.46 1.25 8.19 1.88 3.39 0.77 6.78 1.54 10.2 2.3 9.11 2.05 18.2 4.18 27.2 6.48 8.97 2.24 18 4.24 27 6.31 6.55 1.5 13.1 3.01 19.6 4.53 5.49 1.26 11 2.53 16.5 3.78 9.76 2.24 19.5 4.5 29.2 6.97 8.86 2.26 17.8 4.23 26.7 6.2 10.8 2.39 21.6 4.97 32.4 7.59 4.56 1.1 9.12 2.19 13.7 3.27l5.16 1.23c0.85 0.2 1.69 0.4 2.56 0.6 2.53 0.61 5.06 1.21 7.59 1.82 9.87 2.36 19.8 4.69 29.6 6.98 1.08 0.25 2.15 0.5 3.26 0.75 4.7 1.09 9.4 2.14 14.1 3.04 3.5 0.68 6.89 1.55 10.3 2.56 0.91 0.27 1.82 0.54 2.76 0.82 1.85 0.55 3.69 1.11 5.54 1.69 10.4 3.01 19.2 1.22 29.4-1.55 13.5-3.53 27.1-6.44 40.7-9.34 1.72-0.37 3.43-0.74 5.15-1.11 0.77-0.16 1.55-0.32 2.35-0.49 4.65-1.01 9.11-2.3 13.6-3.89 3.33-1.09 6.73-1.66 10.2-2.23 5.06-0.86 9.94-2.02 14.9-3.44 3.79-0.79 7.58-1.5 11.4-2.22 3.55-0.7 3.55-0.7 6.62-1.78 3.45-1.15 6.87-1.83 10.4-2.5 4.95-0.94 9.72-2.11 14.6-3.5 2.56-0.55 5.12-1.07 7.69-1.56 5.08-0.99 10-2.08 15-3.48 4.43-1.1 8.68-1.34 13.2-1.34h2.47c8.72 0.16 18.7 1.43 26.6 5.38 0.02-1.2 0.05-2.39 0.07-3.63 0.44-3.66 1.39-5.28 4.18-7.68 1.22-0.94 2.48-1.84 3.75-2.69 0.7-0.5 1.39-1 2.1-1.52 4.19-2.14 8.51-2.95 13.1-3.92 0.97-0.21 1.94-0.42 2.94-0.64 2.96-0.65 5.92-1.29 8.87-1.92 2.55-0.56 5.09-1.12 7.64-1.68 1.49-0.33 2.97-0.65 4.46-0.98 3.18-0.69 6.31-1.46 9.44-2.36 4.86-1.38 9.79-2.26 14.8-3.2 3.63-0.76 7.14-1.75 10.7-2.78 2.4-0.54 4.79-1.06 7.19-1.56 4.69-0.98 9.31-2.02 13.9-3.31 7.04-1.95 14-3.58 21.2-4.85 9.75-1.76 19.4-4.27 29-6.62 4.11-1 8.23-1.94 12.4-2.88 2.83-0.65 5.65-1.32 8.46-2 0.93-0.22 1.85-0.44 2.8-0.67 1.81-0.43 3.62-0.87 5.43-1.31 5.16-1.24 10.3-2.36 15.5-3.36 1.82-0.37 3.61-0.86 5.39-1.38 7.48-2.12 15.1-3.54 22.8-5.06 3.03-0.62 6.05-1.25 9.07-1.88 0.78-0.16 1.56-0.32 2.37-0.48 4.46-0.94 8.89-1.96 13.3-3.08 7.94-2.02 16-3.7 24-5.4 1.73-0.37 1.73-0.37 3.5-0.76 1.56-0.33 1.56-0.33 3.15-0.67 2.82-0.64 2.82-0.64 5.62-2.73 2.09-0.47 2.09-0.47 4.46-0.78 0.87-0.12 1.73-0.24 2.62-0.37 0.91-0.11 1.81-0.23 2.74-0.35 25.4-3.34 25.4-3.34 31.6-1.29zm-36.8 36.7c-1.74 0.25-1.74 0.25-3.52 0.5-3.26 0.46-3.26 0.46-6.11 2.63-1.93 0.47-1.93 0.47-4.09 0.78-0.78 0.12-1.56 0.24-2.37 0.36-0.82 0.12-1.63 0.24-2.47 0.36-1.62 0.23-3.23 0.47-4.84 0.72-0.72 0.1-1.43 0.2-2.17 0.31-2.25 0.51-3.99 1.43-6.06 2.47-1.49 0.38-3 0.72-4.52 1-0.85 0.16-1.71 0.33-2.59 0.5-0.89 0.16-1.78 0.33-2.7 0.5-4.72 0.89-9.37 1.76-14 3.09-3.72 1.06-7.22 1.33-11.1 1.57-2.35 0.16-2.35 0.16-4.14 2.34-2.29 0.56-2.29 0.56-5.12 1-1.52 0.25-1.52 0.25-3.08 0.5-1.07 0.16-2.13 0.33-3.23 0.5-2.11 0.33-4.21 0.66-6.31 1-1.4 0.22-1.4 0.22-2.84 0.44-2.66 0.47-2.66 0.47-5.42 2.56-2.75 0.67-5.47 1.27-8.25 1.81-1.71 0.35-3.43 0.7-5.14 1.05-0.91 0.18-1.82 0.37-2.76 0.56-4.91 1-9.82 2.07-14.7 3.14-0.98 0.21-1.95 0.43-2.96 0.64-6.22 1.36-12.4 2.76-18.6 4.22-1.68 0.38-3.36 0.73-5.05 1.03-2.5 0.48-2.5 0.48-4.84 1.55-4.36 1.65-8.94 1.9-13.6 2.44-3.18 0.27-3.18 0.27-5.09 2.56-2.06 0.56-2.06 0.56-4.57 1-1.37 0.25-1.37 0.25-2.77 0.5-1.44 0.25-1.44 0.25-2.91 0.5-7.05 1.18-7.05 1.18-13.9 3.06-4.12 1.37-8.3 1.7-12.6 2.15-4.04 0.39-4.04 0.39-7.22 2.79-2.59 0.58-5.13 1.07-7.75 1.5-4.94 0.82-9.5 1.86-14.2 3.5-3.38 0.79-6.77 1.5-10.2 2.22-2.93 0.56-2.93 0.56-4.83 2.78-0.31 2.92-0.31 2.92-0.28 6.39-0.01 0.65-0.02 1.31-0.02 1.99-0.02 1.42-0.03 2.85-0.03 4.27-0.01 2.26-0.03 4.52-0.05 6.77-0.05 4.8-0.09 9.6-0.12 14.4-0.03 5.55-0.07 11.1-0.13 16.6-0.02 2.22-0.03 4.45-0.04 6.67-0.01 1.36-0.02 2.73-0.04 4.1-0.01 1.19-0.01 2.38-0.02 3.61-0.26 3.15-0.84 5.36-2.27 8.17-12.7 8.79-36 9.45-50.9 11.8-0.81 0.13-1.63 0.25-2.47 0.39-12 1.78-12 1.78-15.8-0.35-0.55-0.53-1.1-1.06-1.67-1.6-0.84-0.79-0.84-0.79-1.71-1.59-3.25-3.53-3.75-5.8-3.89-10.5-0.04-1.2-0.08-2.41-0.12-3.64-0.03-1.3-0.06-2.59-0.09-3.93-0.04-1.34-0.08-2.67-0.12-4.01-0.19-6.9-0.28-13.8-0.24-20.7 0-1.27 0.01-2.55 0.02-3.87 0.02-2.46 0.05-4.91 0.09-7.37 0.01-1.1 0.02-2.21 0.03-3.35 0.02-0.97 0.04-1.94 0.06-2.94 0.02-2.52 0.02-2.52-2.22-4.32-2.07 0.38-4.14 0.78-6.18 1.3-3.19 0.79-6.4 1.47-9.63 2.14-4.2 0.87-8.35 1.85-12.5 2.9-7.37 1.86-14.8 3.51-22.2 5.16-15.8 3.51-31.5 7.1-47.2 10.8-0.87 0.2-1.74 0.4-2.64 0.61-10.2 2.37-20.5 4.81-30.6 7.42-6.4 1.62-12.8 3.03-19.3 4.28-5.11 0.98-5.11 0.98-8.66 4.44-0.29 2.65-0.4 5.06-0.37 7.72-0.01 0.79-0.01 1.59-0.02 2.41-0.01 2.7 0 5.39 0.01 8.09 0 1.94 0 3.89-0.01 5.83-0.01 5.36-0.01 10.7 0 16.1 0.01 5.77 0 11.6-0.01 17.3-0.01 11.3-0.01 22.6 0 33.9 0.01 9.19 0.01 18.4 0 27.6v3.96 7.96c-0.01 24.2 0 48.4 0.01 72.6 0.02 22.1 0.02 44.2 0 66.3-0.01 24.8-0.02 49.6-0.01 74.4v7.93 3.94c0.01 9.19 0 18.4 0 27.6-0.01 11.2-0.01 22.4 0.01 33.6 0 5.71 0.01 11.4 0 17.1-0.01 5.22-0.01 10.4 0.01 15.7 0 1.9 0 3.8-0.01 5.69-0.01 2.56 0 5.13 0.02 7.69-0.01 0.75-0.02 1.5-0.02 2.27 0.03 2.88 0.06 4.94 1.67 7.38 3.13 1.94 6.83 2.06 10.4 2.51 8.22 1.04 16.1 2.95 24.1 5.01 5.92 1.5 11.9 2.87 17.8 4.27 2.3 0.54 4.6 1.09 6.89 1.63 1.47 0.35 2.94 0.69 4.41 1.04 0.69 0.16 1.37 0.32 2.07 0.49 3.47 0.84 3.47 0.84 7 1.12 0.01-0.82 0.01-1.65 0.01-2.5 0.06-48.8 0.13-97.6 0.22-146 0.01-5.87 0.03-11.7 0.04-17.6v-3.54c0.04-18.9 0.06-37.8 0.08-56.7 0.03-19.4 0.06-38.8 0.1-58.2 0.03-12 0.05-23.9 0.05-35.9 0.01-8.2 0.03-16.4 0.05-24.6 0.01-4.74 0.02-9.47 0.02-14.2 0-4.34 0.01-8.68 0.03-13v-4.7c-0.03-9.33 0.45-17.2 4.97-25.5 6.62-5.77 17.2-5.99 25.6-7 1.99-0.24 3.98-0.5 5.97-0.76 6.68-0.84 13.4-1.56 20.1-2.07 1.2-0.1 2.4-0.19 3.63-0.28 4.74-0.01 6.64 0.8 10.1 3.99 1.35 2.31 2.14 4.44 3 7l1 1c1.4 9.51 1.14 19.2 1.1 28.8v5.03c0 4.59-0.01 9.17-0.02 13.8-0.01 4.95-0.02 9.91-0.02 14.9-0.01 8.58-0.03 17.2-0.04 25.7-0.03 13.6-0.04 27.1-0.05 40.6 0 4.63-0.01 9.27-0.01 13.9v3.51c-0.02 13.2-0.03 26.4-0.05 39.5v3.65c-0.02 19.5-0.05 39.1-0.08 58.6-0.04 20.1-0.06 40.1-0.07 60.2 0 12.4-0.02 24.8-0.05 37.1-0.02 8.47-0.03 16.9-0.03 25.4 0 4.89 0 9.78-0.02 14.7-0.02 4.47-0.02 8.94-0.01 13.4 0 1.63 0 3.25-0.01 4.87-0.02 2.2-0.01 4.39 0 6.59 0 1.83 0 1.83-0.01 3.7 0.14 2.93 0.14 2.93 1.68 4.82 2.88 1.94 6.21 2.28 9.57 2.89 8.35 1.63 16.6 3.53 24.9 5.56 11.2 2.73 22.4 5.32 33.6 7.82 8.47 1.9 16.9 3.85 25.3 6.04 2.86 0.7 5.71 1.31 8.6 1.88 1.34 0.27 1.34 0.27 2.72 0.54 0.68 0.14 1.36 0.27 2.06 0.41v-2.87c-0.02-56-0.04-112-0.05-168v-20.2-2.03c-0.01-21.7-0.01-43.4-0.02-65.1-0.01-22.9-0.02-45.9-0.02-68.8 0-13.7-0.01-27.5-0.01-41.2-0.01-9.42-0.01-18.8-0.01-28.3v-16.3c-0.01-4.98-0.01-9.96-0.01-14.9v-5.4c-0.05-27.8-0.05-27.8 5.12-34.7 3.47-3.3 7.13-3.77 11.7-4.35 0.75-0.11 1.49-0.21 2.26-0.32 2.39-0.33 4.78-0.64 7.17-0.96 1.58-0.21 3.17-0.43 4.75-0.65 4.37-0.6 8.75-1.17 13.1-1.72 0.94-0.12 1.88-0.24 2.84-0.36 7.18-0.81 14.4-0.93 21.6-1.02 1.27-0.03 2.53-0.07 3.84-0.11 1.2-0.01 2.41-0.02 3.66-0.03 1.09-0.02 2.19-0.04 3.31-0.06 2.75 0.58 2.75 0.58 4.45 2.8 0.64 1.38 0.64 1.38 1.3 2.78 0.52 0.72 1.03 1.44 1.56 2.18 1.85 3.61 1.85 6.76 1.81 10.7 0.01 1.19 0.01 1.19 0.01 2.4 0.01 2.67-0.01 5.33-0.02 8v5.78c0.01 5.3-0.01 10.6-0.02 15.9-0.02 5.72-0.01 11.4-0.01 17.2-0.01 9.91-0.02 19.8-0.04 29.7-0.03 14.4-0.04 28.7-0.05 43-0.01 23.3-0.03 46.6-0.06 69.9-0.01 5.65-0.02 11.3-0.03 16.9v2.12c-0.02 16.2-0.04 32.5-0.06 48.7v2.11c-0.01 15.9-0.03 31.8-0.04 47.7v2.03c-0.01 6.02-0.01 12-0.01 18-0.02 15.6-0.03 31.3-0.06 46.9-0.01 9.82-0.02 19.6-0.03 29.4-0.01 5.66-0.01 11.3-0.02 17-0.02 5.19-0.02 10.4-0.02 15.6 0 1.87-0.01 3.74-0.01 5.61-0.03 11.4 0.29 22.7 1.1 34.1 9.08 2.94 18.3 4.92 27.6 6.94 9.61 2.08 19.2 4.22 28.7 6.63 6.1 1.55 12.2 2.97 18.3 4.37 8.69 1.99 17.4 4.01 26 6.09 8.5 2.04 17 4.01 25.5 5.99 8.63 2 17.2 4.07 25.8 6.35 3.25 0.8 3.25 0.8 7.93 0.63v-707c-2.45 0-4.95 0.53-7.37 0.87zm42.4 1.13c-1.75 3.04-2.25 5.23-2.25 8.73 0 0.96 0 1.92-0.01 2.9 0.01 1.05 0.01 2.1 0.02 3.18-0.01 1.12-0.01 2.24-0.01 3.4-0.01 3.79 0 7.57 0.01 11.4 0 2.73-0.01 5.46-0.01 8.19-0.01 5.95 0 11.9 0 17.9 0.01 8.85 0.01 17.7 0.01 26.6-0.01 14.9-0.01 29.8 0 44.7 0.01 14.8 0.02 29.5 0.02 44.3v2.79 11.2c-0.01 35 0 70 0.02 105 0.01 31.1 0.02 62.1 0.02 93.2v5.97 2.99 14.9 2.97c0 26 0 52 0.01 77.9v2.8 11.2c0.01 12.9 0.01 25.8 0.01 38.7 0 16.7 0 33.3 0.01 50 0.01 8.8 0.01 17.6 0.01 26.4 0 5.89 0 11.8 0.01 17.7v10c-0.01 19.4 0.24 38.8 2.13 58.1 4.44 1.04 6.95 0.69 11.3-0.73 1.21-0.39 2.43-0.78 3.68-1.18 0.96-0.31 0.96-0.31 1.93-0.63 3.28-1.08 6.58-2.13 9.88-3.18 0.64-0.2 1.28-0.41 1.94-0.62 5.57-1.78 11.2-3.32 16.8-4.78 16.8-4.32 33.5-9.24 50.1-14.1 54.2-15.9 54.2-15.9 81-22.4 7.77-1.9 15.4-4.04 23.1-6.33 6.95-2.06 13.9-4.04 20.9-5.98 0.95-0.27 1.91-0.54 2.89-0.81 3.9-1.08 7.79-2.16 11.7-3.24 2.75-0.76 5.5-1.52 8.24-2.28 0.82-0.22 1.64-0.45 2.48-0.68 0.79-0.22 1.57-0.44 2.38-0.66 1-0.28 1-0.28 2.03-0.56 3.88-1.17 7.71-2.49 11.6-3.77v-557c-5.46-2.43-5.46-2.43-11-4.1-1.01-0.24-1.01-0.24-2.04-0.49-0.67-0.16-1.35-0.31-2.05-0.47-4.73-1.12-9.33-2.38-13.9-3.94-1.74-0.46-3.49-0.9-5.25-1.31-5.43-1.34-10.8-2.77-16.2-4.25-0.77-0.21-1.55-0.42-2.35-0.64-5.69-1.57-5.69-1.57-8.25-2.86-2.79-1.38-5.66-1.79-8.71-2.38-5.1-1.04-9.4-2.51-14.2-4.56-3.51-0.82-7.03-1.53-10.6-2.25-4.29-0.94-8.32-2.26-12.4-3.75-1.6-0.55-3.2-1.09-4.81-1.63-0.71-0.24-1.41-0.48-2.14-0.72-2.01-0.64-4-1.16-6.05-1.65-6.38-1.54-12.6-3.16-18.8-5.32-2.2-0.7-4.38-1.21-6.65-1.68-2.89-0.61-5.64-1.34-8.43-2.31-4.56-1.58-9.17-2.86-13.8-4.13-5.34-1.46-10.6-2.96-15.9-4.62-5.81-1.82-11.7-3.39-17.6-4.94-4.76-1.27-9.48-2.63-14.2-4-3.73-1.05-7.48-2.03-11.2-3-5.38-1.42-10.6-3.1-15.8-5.05-6.59-2.45-12.5-4.41-19.6-3.95zm-914 41.4c-1.29 0.11-1.29 0.11-2.61 0.22-2.4 0.23-2.4 0.23-4.21 2.41-1.8 0.59-1.8 0.59-3.95 1.07-0.79 0.17-1.57 0.35-2.38 0.53-0.82 0.17-1.63 0.34-2.48 0.52-0.81 0.19-1.61 0.37-2.45 0.55-3.3 0.72-6.29 1.33-9.69 1.32-2.28-0.23-2.28-0.23-4.05 2.01-3.44 0.71-6.87 1.25-10.4 1.77-4.53 0.72-8.51 1.85-12.8 3.55-2.73 0.99-5.44 1.34-8.31 1.68-3.78 0.45-7.19 1.15-10.8 2.4-5.26 1.83-10.6 2.99-16 4.16-1.92 0.42-3.84 0.83-5.76 1.26-0.84 0.18-1.68 0.36-2.54 0.54-2.59 0.68-4.96 1.64-7.45 2.64-2.56 0.48-5.11 0.92-7.68 1.31-5.97 0.98-11.7 2.27-17.5 4-9.45 2.79-19.1 4.63-28.7 6.46-7.48 1.43-14.8 3.16-22.2 5.17-7.21 1.97-14.5 3.68-21.7 5.43-1.19 0.29-1.19 0.29-2.42 0.59-11.7 2.84-23.4 5.61-35.1 8.27-1.46 0.34-1.46 0.34-2.95 0.68-0.83 0.18-1.67 0.37-2.54 0.57-2.3 0.53-2.3 0.53-5.14 1.52-1.27 50.5-1.18 101-1.2 151 0 7.32 0 14.6-0.01 22-0.01 20.4-0.02 40.7-0.02 61.1v3.9 3.92c-0.01 2.62-0.01 5.24-0.01 7.85v3.94c0 21.2-0.02 42.4-0.04 63.6-0.03 21.9-0.04 43.7-0.04 65.6 0 12.2-0.01 24.5-0.02 36.7-0.02 10.4-0.02 20.7-0.02 31.1 0.01 5.29 0.01 10.6-0.01 15.9-0.01 4.84-0.01 9.67 0 14.5 0.01 1.76 0 3.51-0.01 5.26-0.01 2.37 0 4.75 0.01 7.12-0.01 0.69-0.01 1.38-0.02 2.09 0.03 2.78 0.09 4.64 1.72 6.95 2.7 1.8 5.71 2.39 8.83 3.1 0.72 0.17 1.45 0.35 2.19 0.53 2.38 0.57 4.77 1.12 7.15 1.68 1.67 0.39 3.33 0.79 4.99 1.18 12.8 3.06 25.7 6.01 38.6 8.89 7.83 1.76 15.6 3.7 23.3 5.8 5.28 1.4 10.6 2.61 15.9 3.81 15.3 3.51 30.7 7.1 45.9 11 10.8 2.73 21.6 5.19 32.4 7.57 6.29 1.4 12.5 2.89 18.7 4.59 7.34 1.99 14.7 3.54 22.2 5.01 11.1 2.2 22.2 4.48 33.1 7.57 2.88 0.81 5.29 1.42 8.29 1.42v-626c-3.46 0-6.75 0.07-10.2 0.37zm44.2-0.37c-1.03 30.4-1.14 60.7-1.11 91.1v21.4c0 13.1 0 26.3 0.01 39.4 0 13 0.01 25.9 0.01 38.9v2.46 12.4c0 29.1 0.01 58.1 0.02 87.2 0.01 28.2 0.02 56.4 0.02 84.6v2.64 26.3c0.01 17.8 0.01 35.7 0.01 53.5v2.49c0.01 54.6 0.03 109 0.04 164 2.98 1.49 4.82 0.44 8-0.41 1.27-0.33 2.53-0.65 3.83-0.99 0.68-0.18 1.36-0.36 2.05-0.54 12.3-3.23 24.6-6.08 37.1-8.56 11.8-2.36 23.5-4.98 35.2-7.88 11.7-2.88 23.4-5.57 35.1-8.18 12.5-2.79 25-5.66 37.5-8.71 11.8-2.87 23.5-5.59 35.3-8.31 12.3-2.86 24.7-5.78 37-8.8 9.02-2.2 18-4.33 27.1-6.18 6.84-1.4 13.6-3 20.4-4.63 1.1-0.26 2.2-0.52 3.34-0.79 1.53-0.37 1.53-0.37 3.1-0.75 0.91-0.22 1.83-0.44 2.77-0.67 2.24-0.53 2.24-0.53 4.22-1.6v-3.54c-0.02-11-0.04-22-0.05-33 0-5.66-0.01-11.3-0.02-17-0.01-5.46-0.02-10.9-0.02-16.4 0-2.08-0.01-4.17-0.01-6.25-0.01-2.92-0.01-5.83-0.01-8.75 0-0.86-0.01-1.73-0.01-2.62v-2.41-2.09c0.13-2.09 0.56-3.95 1.12-5.96-11.6 0.32-22.9 1.54-34.4 3.08-10.5 1.4-21 2.66-31.4 3.79-15.3 1.67-30.6 3.47-45.9 5.32-1.1 0.13-2.2 0.26-3.33 0.4-12.2 1.46-12.2 1.46-24.4 2.97-13.4 1.65-13.4 1.65-18.2-1.44-2.38-2.12-2.38-2.12-3.38-4.12h-2c-2.07-4.25-2.28-8.09-2.25-12.7-0.01-0.76-0.01-1.52-0.02-2.3 0-2.51 0-5.02 0.01-7.53 0-1.75 0-3.5-0.01-5.25 0-3.66 0-7.33 0.01-11 0.01-4.69 0.01-9.38 0-14.1-0.01-3.61-0.01-7.22 0-10.8 0-1.73 0-3.46-0.01-5.19 0-2.42 0-4.84 0.02-7.26-0.01-0.71-0.01-1.42-0.02-2.15 0.06-7.05 1.97-12.1 6.27-17.7 9.56-5.92 24.8-4.62 35.8-5.22 1.81-0.1 3.62-0.21 5.44-0.31 4.75-0.28 9.51-0.54 14.3-0.81 7.53-0.42 15.1-0.85 22.6-1.28 2.76-0.16 5.52-0.32 8.27-0.47 12.2-0.7 24.5-1.45 36.7-2.28 10.4-0.69 20.7-1.13 31.1-1.46 1.94-0.07 1.94-0.07 3.84-1.17 0.73-54.1 1.11-108 1.13-162 0-5.01 0-10 0.01-15 0.02-29.5-0.08-59-0.55-88.5l-0.09-6-0.18-11c-0.02-1.09-0.04-2.19-0.05-3.32-0.02-0.99-0.04-1.98-0.06-3.01-0.02-0.86-0.03-1.73-0.05-2.62-0.03-2.14-0.03-2.14-1.16-4.08-2.51-0.75-4.97-1.38-7.53-1.95-0.77-0.18-1.55-0.37-2.34-0.55-2.54-0.59-5.08-1.17-7.63-1.75-1.74-0.41-3.49-0.81-5.23-1.22-3.48-0.81-6.96-1.61-10.4-2.41-6.22-1.44-12.4-2.93-18.6-4.43-1.97-0.48-3.94-0.95-5.91-1.43-0.9-0.21-1.8-0.43-2.73-0.65-11.9-2.86-23.8-5.61-35.8-8.31-3.94-0.89-7.88-1.79-11.8-2.7-0.99-0.22-1.98-0.45-3-0.68-1.9-0.44-3.79-0.87-5.68-1.31-4.4-1.01-8.78-1.88-13.2-2.61-2.86-0.59-5.71-1.23-8.56-1.88-0.79-0.17-1.58-0.35-2.4-0.53-4.66-1.05-9.32-2.12-14-3.22-4.92-1.15-9.84-2.07-14.8-2.84-2.25-0.53-2.25-0.53-5.25-2.53-2.29-0.57-2.29-0.57-4.87-0.94-6.42-1.08-12.7-2.52-19.1-4-1.09-0.25-2.18-0.5-3.31-0.76-7.96-1.85-15.9-3.8-23.8-5.83-2.1-0.51-4.19-0.95-6.31-1.37-0.82-0.17-1.64-0.34-2.49-0.51-1.71-0.35-3.42-0.7-5.14-1.04-6.47-1.33-6.47-1.33-9.46-2.56-4.08-1.59-8.36-2.17-12.7-2.93-6.65-1.21-13.2-2.49-19.6-4.55-2.79-0.63-5.4-0.54-8.26-0.51zm523 37c-1.69 3.69-2.25 6.58-2.26 10.6 0 1.06-0.01 2.11-0.01 3.19 0.01 1.09 0.02 2.18 0.02 3.3 0 1.1-0.01 2.2-0.02 3.33 0 1.05 0.01 2.1 0.01 3.18 0 0.96 0 1.92 0.01 2.9 0.09 2.72 0.09 2.72 2.25 5.47 2.11 0.4 2.11 0.4 4.44 0.25 1.18-0.02 1.18-0.02 2.37-0.05 2.37-0.13 2.37-0.13 5.19-1.2 0.05-3.93 0.09-7.87 0.11-11.8 0.02-1.99 0.04-3.99 0.07-5.98 0.01-1.26 0.01-2.51 0.02-3.8 0.02-1.74 0.02-1.74 0.03-3.51 0-3.11 0-3.11-2.23-5.91-2.43-0.37-2.43-0.37-5.12-0.19-0.91 0.03-1.82 0.06-2.76 0.08-0.7 0.04-1.4 0.07-2.12 0.11zm-34 12v6h1v-6h-1zm131 123c-1.25 8.72-1.14 17.4-1.12 26.2 0 1.76-0.01 3.52-0.01 5.28v14.5c0.01 5.2 0 10.4 0 15.6v30.6 24.8 3.57 7.18 67.3c0.01 19.3 0.01 38.5 0 57.8v67.1 7.14 3.55 24.8 30.2 15.4c0 4.7 0 9.4 0.01 14.1 0 1.71 0 3.41-0.01 5.12 0 2.31 0 4.61 0.01 6.92v3.9c-0.08 2.89-0.08 2.89 1.12 4.96 7.16 0.35 13.2-0.66 20-3 1.33-1.11 1.33-1.11 1.13-3.89v-3.97-2.2c0-2.48 0-4.95-0.01-7.42 0-1.78 0.01-3.56 0.01-5.34 0-4.91 0-9.82-0.01-14.7v-15.9c0-9.17 0-18.3-0.01-27.5-0.01-13.2-0.01-26.5-0.01-39.8 0-21.5-0.01-43-0.02-64.5-0.01-20.9-0.02-41.8-0.02-62.7v-3.9c0-6.46 0-12.9-0.01-19.4-0.01-53.6-0.02-107-0.05-161-1.42-0.17-2.85-0.33-4.28-0.49-0.79-0.1-1.59-0.19-2.4-0.28-2.97-0.3-5.9-0.33-8.88-0.29-1.03 0.01-2.06 0.01-3.13 0.02-0.76 0.02-1.52 0.03-2.31 0.04zm-217 2 1 3zm34 19c-1.37 2.75-1.12 4.94-1.12 8.02 0 1.29-0.01 2.59-0.01 3.92 0 1.44 0 2.89 0.01 4.34 0 1.53-0.01 3.05-0.01 4.58v12.6c0.01 4.53 0 9.07 0 13.6v26.7 21.7 3.11 6.25 58.7c0.01 16.8 0.01 33.6 0 50.4v58.5 6.23 3.1 21.7 26.4 13.5c0 4.1 0 8.21 0.01 12.3 0 1.49 0 2.98-0.01 4.47 0 2.02 0 4.03 0.01 6.04v3.4c-0.16 2.44-0.16 2.44 1.12 3.5h7v-373h-7zm-155 202c-1.54 0.13-3.08 0.26-4.62 0.38-0.81 0.07-1.63 0.13-2.47 0.2-15.2 1.24-30.3 2.23-45.6 2.94-0.87 0.04-1.74 0.08-2.64 0.12-7.07 0.33-14.2 0.65-21.2 0.96-5.37 0.24-10.7 0.48-16.1 0.74-2.46 0.11-4.92 0.22-7.37 0.32-11.4 0.28-11.4 0.28-22.5 2.76-1.19 2.38-1.13 3.91-1.12 6.56 0 0.81-0.01 1.61-0.01 2.44-0.09 2-0.09 2 1.13 3 3.86 0.65 7.77 0.99 11.7 1.4 1.24 0.13 2.48 0.26 3.76 0.4 16.1 1.67 32.3 2.61 48.5 3.61 7.46 0.46 14.9 0.93 22.4 1.41 1.19 0.07 1.19 0.07 2.4 0.15 9.97 0.63 19.9 1.34 29.9 2.44 5.49 0.59 10.9 0.68 16.4 0.59v-2.42-28.6c-4.2-0.08-8.34 0.23-12.5 0.58z" fill="#F9FCFE"/>
<path transform="translate(531 246)" d="m0 0c2.83 0.32 5.65 0.65 8.48 0.98 2.89 0.35 5.78 0.67 8.67 0.99 1.87 0.22 3.73 0.44 5.6 0.65 0.85 0.1 1.7 0.19 2.58 0.29 11.6 1.42 11.6 1.42 16.2 4.1 0.69 1.73 0.69 1.73 1 4 0.18 0.91 0.37 1.82 0.55 2.75 0.52 3.77 0.62 7.48 0.63 11.3 0.01 0.78 0.01 1.57 0.02 2.37 0.02 2.57 0.03 5.14 0.04 7.71 0.01 0.88 0.01 1.76 0.01 2.66 0.02 4.66 0.04 9.32 0.05 14 0.01 4.8 0.04 9.6 0.08 14.4 0.03 3.7 0.04 7.4 0.04 11.1 0.01 1.77 0.02 3.54 0.04 5.31 0.02 2.48 0.02 4.95 0.01 7.43 0.02 0.73 0.03 1.45 0.04 2.2-0.05 5.07-1.32 7.92-4.51 11.8-5.9 4.57-11 4.53-18.2 4.31-1.58-0.02-1.58-0.02-3.2-0.05-3.19-0.06-6.37-0.16-9.55-0.26-1.34-0.03-1.34-0.03-2.71-0.07-5.45-0.14-10.9-0.43-16.3-0.93-0.73-0.06-1.47-0.13-2.23-0.2-6.79-0.67-13.4-1.56-18.7-6.17-4.9-6.81-4.17-15.1-4.09-23.1 0.03-3.96-0.01-7.93-0.05-11.9-0.06-7.71-0.03-15.4 0.04-23.1 0.03-3.59 0.03-7.17 0.02-10.8-0.01-3.16 0.04-6.32 0.08-9.48-0.02-1.69-0.02-1.69-0.04-3.42 0.15-6.78 1.3-10.4 6.18-15.2 0.59-0.53 1.18-1.06 1.79-1.61 0.45-0.56 0.9-1.12 1.37-1.69 5.54-4.43 19.3-1.04 26.1-0.32zm-0.46 39v35c3.89 1.3 6.91 1.13 11 1 1.38-1.14 1.38-1.14 1.12-4.23 0-1.44-0.01-2.87-0.02-4.3v-2.29c-0.01-2.41-0.02-4.83-0.03-7.24-0.01-1.63-0.01-3.27-0.02-4.9-0.01-4.01-0.03-8.03-0.05-12-3.12-1.74-3.12-1.74-12-1z" fill="#F6F9FB"/>
<path transform="translate(1503,687)" d="m0 0-1 4c-0.86 0.18-1.71 0.36-2.6 0.55-6.13 1.35-11.6 2.89-17.4 5.45-3.63 1.12-7.32 2.05-11 3-1.6 0.42-3.2 0.84-4.79 1.27l-10 2.64c-0.7 0.19-1.41 0.37-2.14 0.57-1.37 0.35-2.75 0.69-4.13 1.03-2.39 0.62-4.6 1.57-6.89 2.49-1.49 0.44-2.99 0.86-4.5 1.25-5.48 1.46-10.9 3-16.4 4.56-0.9 0.26-1.81 0.52-2.75 0.79-1.87 0.54-3.74 1.07-5.61 1.61-5.13 1.47-10.2 2.93-15.4 4.39-5.17 1.48-10.4 2.96-15.5 4.45-1.24 0.35-2.47 0.71-3.74 1.07-2.4 0.69-4.8 1.38-7.2 2.08-6.42 1.84-12.8 3.57-19.3 5.13-3.18 0.82-6.25 1.85-9.35 2.92-5.57 1.85-11.3 3.24-17 4.72-6.04 1.59-12 3.21-17.9 5.26-7.53 2.49-15.2 4.47-22.9 6.58-0.75 0.21-1.5 0.41-2.27 0.63-0.76 0.21-1.52 0.42-2.3 0.63-5.93 1.65-11.8 3.37-17.7 5.11-6.7 1.99-13.4 3.91-20.2 5.82l-2-2c0.38-2.12 0.38-2.12 1-4 0.9-0.09 1.79-0.17 2.72-0.26 5.77-0.83 11.2-2.79 16.8-4.55 8.29-2.6 16.6-5.1 25-7.27 16.8-4.37 33.5-9.27 50.2-14.2 54.2-15.9 54.2-15.9 81-22.4 7.77-1.9 15.4-4.04 23.1-6.32 10.9-3.23 21.8-6.26 32.7-9.3 0.96-0.27 1.92-0.54 2.91-0.81 1.41-0.39 1.41-0.39 2.84-0.79 0.92-0.26 1.84-0.51 2.78-0.77 1.72-0.48 3.45-0.96 5.17-1.44 1.18-0.33 1.18-0.33 2.38-0.66 0.74-0.21 1.48-0.41 2.24-0.62 2.03-0.57 4.05-1.17 6.07-1.76 3.05-0.84 3.05-0.84 5.05-0.84z" fill="#010103"/>
<path transform="translate(662,656)" d="m0 0v4c-1.74 0.38-1.74 0.38-3.52 0.77-1.57 0.35-3.15 0.69-4.73 1.04-1.23 0.27-1.23 0.27-2.49 0.55-4.65 1.03-9.27 2.13-13.9 3.33-3.23 0.83-6.32 1.48-9.63 1.81-3.69 0.49-6.46 1.48-9.86 2.88-2.64 0.87-5.14 0.69-7.89 0.62l-2 2c-2.86 0.56-5.68 1.03-8.56 1.44-5.61 0.86-10.9 1.79-16.2 3.8-4.95 1.69-10.1 2.63-15.2 3.76-0.63 0.16-1.27 0.32-1.92 0.49-2.07 0.51-4.15 0.95-6.24 1.38-7.9 1.62-15.7 3.29-23.5 5.54-2.49 0.62-4.88 0.92-7.43 1.15-3.94 0.03-3.94 0.03-5.94 2.44-2.84 0.56-5.64 1.03-8.5 1.44-5.96 0.91-11.6 2.02-17.3 3.94-3.09 0.88-6.16 1.12-9.37 1.31-2.06 0.17-2.06 0.17-3.81 2.31-1.85 0.5-1.85 0.5-4.06 0.85-0.8 0.13-1.6 0.26-2.42 0.39-1.25 0.19-1.25 0.19-2.52 0.38-1.25 0.21-1.25 0.21-2.52 0.41-6.11 0.97-6.11 0.97-8.48 0.97-0.5 0.99-0.5 0.99-1 2-1.87 0.58-1.87 0.58-4.3 1.04-1.31 0.25-1.31 0.25-2.65 0.51-0.93 0.17-1.85 0.34-2.8 0.51-0.91 0.18-1.81 0.35-2.75 0.53-1.7 0.32-3.41 0.64-5.11 0.96-0.79 0.15-1.58 0.3-2.39 0.45-0.9 0.16-1.81 0.33-2.74 0.49-2.22 0.29-2.22 0.29-3.26 1.51-3.39 0.45-6.78 0.82-10.2 1.16-4.36 0.36-4.36 0.36-7.81 2.84-2.8 0.58-5.55 1.07-8.38 1.5-1.52 0.23-3.05 0.47-4.58 0.72-0.68 0.1-1.36 0.2-2.06 0.31-2.21 0.52-3.96 1.45-5.98 2.47-1.37 0.39-2.76 0.74-4.15 1.04-0.78 0.16-1.56 0.33-2.36 0.51-0.8 0.17-1.6 0.34-2.43 0.51-0.8 0.18-1.59 0.35-2.42 0.53-3.87 0.84-7.75 1.64-11.6 2.41-1.34 0.32-2.67 0.66-4 1-0.5-2.48-0.5-2.48-1-5 5.66-1.34 11.3-2.68 17-4 0.82-0.19 1.65-0.39 2.5-0.58 9.87-2.3 19.8-4.49 29.7-6.5 12.3-2.49 24.5-5.23 36.7-8.24 11.8-2.9 23.6-5.61 35.4-8.24 12.5-2.79 25-5.66 37.5-8.71 11.8-2.86 23.5-5.59 35.3-8.31 12.3-2.86 24.7-5.78 37-8.8 9.02-2.2 18-4.34 27.1-6.18 7.98-1.62 15.9-3.57 23.8-5.51 1.03-0.25 2.05-0.5 3.1-0.76 1.38-0.34 1.38-0.34 2.78-0.68 2.22-0.49 2.22-0.49 4.22-0.49z" fill="#020204"/>
<path transform="translate(75,661)" d="m0 0c4.94 1.09 9.89 2.19 14.8 3.29 2.27 0.51 4.55 1.02 6.82 1.52 3.34 0.74 6.68 1.49 10 2.24 1.97 0.44 3.94 0.87 5.91 1.31 7.69 1.73 15.3 3.63 22.9 5.69 5.09 1.37 10.2 2.61 15.3 3.83 1.06 0.25 2.12 0.5 3.21 0.76 8.73 2.08 17.5 4.1 26.2 6.11 14 3.23 28.1 6.54 42 10.1 10.8 2.73 21.6 5.19 32.4 7.57 6.29 1.4 12.5 2.89 18.7 4.59 7.28 1.98 14.6 3.5 22 4.95 14 2.76 27.8 6 41.6 10v4c-4.62-0.61-9.11-1.42-13.6-2.49-1.24-0.29-2.49-0.58-3.77-0.88-1.32-0.32-2.64-0.63-3.96-0.94-1.35-0.32-2.71-0.64-4.07-0.96-2.66-0.63-5.32-1.26-7.98-1.89-2.92-0.69-5.84-1.37-8.76-2.05-10.3-2.4-20.5-4.94-30.7-7.53-17.1-4.3-34.2-8.26-51.3-12.3-7.68-1.79-15.3-3.64-23-5.57-5.21-1.31-10.4-2.52-15.7-3.72-3.04-0.7-6.06-1.45-9.08-2.21-7.37-1.86-14.8-3.55-22.2-5.21-5.75-1.31-11.4-2.72-17.1-4.29-6.1-1.66-12.2-2.93-18.4-3.96-2.58-0.44-4.89-0.84-7.23-2.04-2.14-1.04-3.85-1.42-6.2-1.75-0.78-0.11-1.56-0.23-2.36-0.35-1.61-0.22-3.23-0.45-4.85-0.67-4.44-0.66-8.06-1.29-11.6-4.23v-3z" fill="#020204"/>
<path transform="translate(1046,724)" d="m0 0c12.9 2.48 25.6 5.26 38.4 8.36 4.27 1.04 8.54 2.06 12.8 3.08 0.85 0.2 1.7 0.4 2.58 0.61 8.19 1.95 16.4 3.84 24.6 5.72 7.47 1.72 14.9 3.48 22.4 5.27 7.74 1.85 15.5 3.65 23.2 5.46 12 2.8 24 5.63 36 8.5v4c-1.79-0.09-3.58-0.2-5.38-0.31-1.49-0.09-1.49-0.09-3.02-0.18-2.95-0.42-5.38-1-8.19-1.89-5.15-1.58-10.3-2.83-15.6-4-0.93-0.21-1.87-0.42-2.83-0.63-2.95-0.67-5.91-1.33-8.87-1.99-3.89-0.87-7.78-1.75-11.7-2.62-0.94-0.21-1.87-0.42-2.82-0.64-5.71-1.29-11.4-2.65-17-4.09-4.49-1.13-9-2.14-13.5-3.15-1.92-0.43-3.85-0.87-5.77-1.3-0.91-0.21-1.83-0.42-2.77-0.63-4.13-0.93-8.26-1.89-12.4-2.84-3.01-0.7-6.02-1.4-9.03-2.09-6.92-1.59-13.8-3.19-20.7-4.8-1.35-0.31-2.69-0.63-4.04-0.94-1.98-0.46-3.95-0.92-5.93-1.38-1.16-0.27-2.32-0.53-3.51-0.81-2.89-0.71-2.89-0.71-5.89-1.71l-1-5z" fill="#000102"/>
<path transform="translate(1240,60)" d="m0 0h1v665h-1v-665z" fill="#797B7A"/>
<path transform="translate(41,177)" d="m0 0h1v479h-1v-479z" fill="#A5A8A8"/>
<path transform="translate(485,698)" d="m0 0-1 4c-2.96 0.5-5.92 1-8.88 1.5-0.84 0.14-1.68 0.29-2.55 0.43-0.8 0.14-1.61 0.27-2.44 0.41-0.74 0.13-1.48 0.26-2.25 0.38-1.88 0.28-1.88 0.28-3.88 0.28l-1 2c-1.87 0.58-1.87 0.58-4.3 1.04-0.87 0.16-1.75 0.33-2.65 0.51-0.93 0.17-1.85 0.34-2.8 0.51-0.91 0.18-1.81 0.35-2.75 0.53-1.7 0.32-3.41 0.64-5.11 0.96-0.79 0.15-1.58 0.3-2.39 0.45-0.9 0.16-1.81 0.33-2.74 0.49-2.22 0.29-2.22 0.29-3.26 1.51-3.39 0.45-6.78 0.82-10.2 1.16-4.36 0.36-4.36 0.36-7.81 2.84-2.8 0.58-5.55 1.07-8.38 1.5-1.52 0.23-3.05 0.47-4.58 0.72-0.68 0.1-1.36 0.2-2.06 0.31-2.21 0.52-3.96 1.45-5.98 2.47-1.37 0.39-2.76 0.74-4.15 1.04-0.78 0.16-1.56 0.33-2.36 0.51-0.8 0.17-1.6 0.34-2.43 0.51-0.8 0.18-1.59 0.35-2.42 0.53-3.87 0.84-7.75 1.64-11.6 2.41-1.34 0.32-2.67 0.66-4 1l-1-5c5.66-1.34 11.3-2.68 17-4 0.82-0.19 1.65-0.39 2.5-0.58 11.1-2.58 22.2-4.98 33.3-7.23 12.4-2.52 24.7-5.42 37-8.47 19-4.72 19-4.72 25.1-4.72z" fill="#000002"/>
<path transform="translate(662,459)" d="m0 0v3c-5.75 0.29-11.5 0.57-17.2 0.85-1.96 0.1-3.91 0.2-5.87 0.3-2.81 0.14-5.62 0.27-8.43 0.41-0.87 0.05-1.75 0.09-2.64 0.14-3.29 0.16-6.55 0.3-9.85 0.26-1.97-0.19-1.97-0.19-2.97 1.04-2.09 0.22-4.2 0.37-6.3 0.5-0.97 0.06-0.97 0.06-1.97 0.12-2.16 0.13-4.32 0.26-6.48 0.38-1.51 0.09-3.03 0.18-4.54 0.27-9.32 0.54-18.6 0.91-28 1.17-10.6 0.31-21.2 0.92-31.9 1.75l-4.83 0.36c-15 0.88-15 0.88-29.1 5.45 0.94-2.35 1.55-3.72 3.73-5.07 10.2-4.19 23.1-3.55 34-4.15 1.82-0.1 3.63-0.21 5.44-0.31 4.76-0.28 9.52-0.54 14.3-0.81 7.53-0.42 15-0.85 22.6-1.28 2.76-0.16 5.51-0.32 8.27-0.47 12.2-0.7 24.5-1.45 36.7-2.27 24.6-1.64 24.6-1.64 35-1.64z" fill="#000002"/>
<path transform="translate(849,678)" d="m0 0 1 2c2.7 0.55 5.34 0.99 8.06 1.38 6.46 0.99 12.8 2.21 19.1 3.86 6.94 1.81 13.9 3.44 20.9 5.07 1.28 0.3 2.55 0.6 3.87 0.91 6.82 1.58 13.6 3.14 20.5 4.65 1.39 0.31 2.78 0.61 4.17 0.92 2.62 0.58 5.24 1.16 7.87 1.72 7.7 1.71 15.1 3.83 22.6 6.49v3c-7.52-0.75-7.52-0.75-9.88-1.98-2.75-1.32-5.29-1.62-8.31-2.02-6.48-0.93-12.8-2.11-19-3.95-4.05-1.13-8.1-2.04-12.2-2.93-6.72-1.46-13.4-3.05-20.1-4.76-4.44-1.12-8.88-2.08-13.4-2.87-2.11-0.49-2.11-0.49-4.33-1.44-3.79-1.43-7.61-2.02-11.6-2.67-1.18-0.21-1.18-0.21-2.39-0.41-1.93-0.33-3.87-0.65-5.8-0.97l-1-6z" fill="#020304"/>
<path transform="translate(1536,148)" d="m0 0h1v339h-1v-339z" fill="#797B7A"/>
<path transform="translate(530,511)" d="m0 0c0.68 0.08 1.36 0.16 2.06 0.24 15.1 1.7 30.2 3.07 45.3 4.04 0.79 0.05 1.58 0.1 2.39 0.15 5.71 0.37 11.4 0.72 17.1 1.07 6.49 0.4 13 0.8 19.5 1.22 1.17 0.07 1.17 0.07 2.38 0.15 15.8 1.02 31.5 2.47 47.2 4.13v2c-29.3 0.35-29.3 0.35-34-2-2.34-0.23-4.68-0.4-7.02-0.54-0.73-0.05-1.45-0.09-2.2-0.14-2.41-0.15-4.82-0.3-7.23-0.44-1.69-0.11-3.38-0.21-5.07-0.32-4.48-0.28-8.96-0.56-13.4-0.83-7.94-0.49-15.9-0.98-23.8-1.48-0.85-0.05-1.7-0.1-2.57-0.16-13.2-0.83-26.5-1.82-39.7-3.09l-1-4z" fill="#0C0C0E"/>
<path transform="translate(662,656)" d="m0 0v4c-1.74 0.38-1.74 0.38-3.52 0.77-1.57 0.35-3.15 0.69-4.73 1.04-0.82 0.18-1.64 0.36-2.49 0.55-4.65 1.03-9.27 2.13-13.9 3.33-3.23 0.83-6.32 1.48-9.63 1.81-3.69 0.49-6.46 1.48-9.86 2.88-2.64 0.87-5.14 0.69-7.89 0.62l-2 2c-6.94 1.75-13.9 2.24-21 2 2.27-2.62 3.93-3.49 7.3-4.21 0.86-0.19 1.73-0.38 2.62-0.58 0.93-0.19 1.87-0.39 2.83-0.59 1.47-0.31 1.47-0.31 2.97-0.64 3.09-0.67 6.18-1.33 9.28-1.98 3.77-0.81 7.54-1.62 11.3-2.44 0.93-0.2 1.86-0.4 2.82-0.6 8.69-1.89 17.3-3.96 26-6.08 1.01-0.25 2.01-0.49 3.04-0.74 0.9-0.22 1.79-0.44 2.7-0.67 2.16-0.47 2.16-0.47 4.16-0.47z" fill="#000102"/>
<path transform="translate(700,646)" d="m0 0c3.17 0.4 6.33 0.82 9.5 1.25 0.87 0.11 1.74 0.22 2.63 0.33 7 0.96 13.8 2.57 20.6 4.33 4.39 1.13 8.79 2.17 13.2 3.2 1.11 0.25 1.11 0.25 2.23 0.52 3.02 0.7 6.03 1.4 9.04 2.1 2.24 0.52 4.49 1.04 6.73 1.56 0.68 0.16 1.37 0.32 2.07 0.48 4.77 1.12 4.77 1.12 7 2.23 0.62 2.56 0.62 2.56 1 5h-2c-0.5-0.99-0.5-0.99-1-2-2.15-0.69-2.15-0.69-4.79-1.15-0.99-0.2-1.99-0.4-3.02-0.6-1.07-0.21-2.15-0.41-3.25-0.63-2.21-0.44-4.42-0.88-6.64-1.33-1.08-0.22-2.16-0.43-3.28-0.66-3.84-0.8-7.65-1.71-11.5-2.69-12.5-3.2-24.8-6.25-37.6-7.94l-1-4z" fill="#020204"/>
<path transform="translate(530,511)" d="m0 0c0.67 0.08 1.35 0.15 2.04 0.23 22 2.42 43.9 4.16 66 5.77v2c-11 0.34-22-0.66-32.9-1.44-1.97-0.13-3.93-0.27-5.9-0.41-9.39-0.65-18.8-1.32-28.2-2.15l-1-4z" fill="#000002"/>
<path transform="translate(661,225)" d="m0 0h1v135h-1v-135z" fill="#CED0D1"/>
<path transform="translate(1536,497)" d="m0 0h1v81h-1v-81z" fill="#020504"/>
<path transform="translate(1011,701)" d="m0 0 1 4c-6.67 2.26-13 3.57-20 4l-2-3 1-3v2c6.76-1.06 13.4-2.22 20-4z" fill="#000102"/>
<path transform="translate(649,521)" d="m0 0 17 1v2h-16l-1-3z" fill="#000002"/>
<path transform="translate(530,511)" d="m0 0c4.62 0.66 9.24 1.32 14 2l1 3c-6.93-0.5-6.93-0.5-14-1l-1-4z" fill="#010203"/>
<path transform="translate(807,662)" d="m0 0 8 1v4c-2.88 0.12-2.88 0.12-6 0l-2-2v-3z" fill="#000102"/>
<path transform="translate(1536,139)" d="m0 0h1v7h-1v-7z" fill="#020504"/>
<path transform="translate(322,99)" d="m0 0 2 1z" fill="#797B7A"/>
<path transform="translate(1043,91)" d="m0 0 2 1z" fill="#797B7A"/>
</svg>
